<svg xmlns="http://www.w3.org/2000/svg" width="32" height="32" viewBox="0 0 32 32" fill="none">
  <!-- Armchair (The "Lazy" part) -->
  <path d="M6 14C6 11.7909 7.79086 10 10 10H22C24.2091 10 26 11.7909 26 14V18H6V14Z" fill="#ffb347"/>
  <path d="M4 16C4 14.8954 4.89543 14 6 14H26C27.1046 14 28 14.8954 28 16V20C28 21.1046 27.1046 22 26 22H6C4.89543 22 4 21.1046 4 20V16Z" fill="#ffb347"/>
  <path d="M6 22V24H8V22H6Z" fill="#ffb347"/>
  <path d="M24 22V24H26V22H24Z" fill="#ffb347"/>
  
  <!-- Magnifying Glass (The "Detective" part) -->
  <circle cx="19" cy="19" r="6.5" fill="#0b0e0c" stroke="#ffb347" stroke-width="2.5"/>
  <path d="M23.5 23.5L28 28" stroke="#ffb347" stroke-width="2.5" stroke-linecap="round"/>
</svg>
